<svg width="1080" height="1920" viewBox="0 0 1080 1920" xmlns="http://www.w3.org/2000/svg">
  <defs>
    <pattern id="gridDark" width="48" height="48" patternUnits="userSpaceOnUse">
    <path d="M 48 0 L 0 0 0 48" fill="none" stroke="rgba(122,170,255,0.08)" stroke-width="1"/>
  </pattern>
    <radialGradient id="glowCyan" cx="50%" cy="50%" r="50%">
    <stop offset="0%" stop-color="#2ad4e6" stop-opacity="0.45"/>
    <stop offset="100%" stop-color="#2ad4e6" stop-opacity="0"/>
  </radialGradient>
    <radialGradient id="glowBrand" cx="50%" cy="50%" r="50%">
    <stop offset="0%" stop-color="#1f7aff" stop-opacity="0.45"/>
    <stop offset="100%" stop-color="#1f7aff" stop-opacity="0"/>
  </radialGradient>
    <linearGradient id="scanBand" x1="0" y1="0" x2="0" y2="1">
      <stop offset="0%" stop-color="#2ad4e6" stop-opacity="0"/>
      <stop offset="50%" stop-color="#2ad4e6" stop-opacity="0.55"/>
      <stop offset="100%" stop-color="#2ad4e6" stop-opacity="0"/>
    </linearGradient>
    <linearGradient id="headlineGradient" x1="0%" y1="0%" x2="100%" y2="30%">
      <stop offset="0%" stop-color="#0a5ff0"/>
      <stop offset="100%" stop-color="#11bdd4"/>
    </linearGradient></defs>
  <rect width="1080" height="1920" fill="#0a1124"/>
  <rect width="1080" height="1920" fill="url(#gridDark)"/>
  <circle cx="540" cy="420" r="480" fill="url(#glowCyan)" opacity="0.5"/>
  <circle cx="540" cy="1500" r="420" fill="url(#glowBrand)" opacity="0.4"/>
  <rect x="0" y="860" width="1080" height="200" fill="url(#scanBand)" opacity="0.4"/>

  <g>
    <rect x="385" y="340" width="61.199999999999996" height="61.199999999999996" rx="17" fill="rgba(255,255,255,0.1)"/>
    <g transform="translate(398.6 353.6) scale(1.4166666666666667)" fill="none" stroke="#2ad4e6" stroke-width="1.4449999999999998" stroke-linecap="round" stroke-linejoin="round">
    <path d="M3 7V5a2 2 0 0 1 2-2h2"/>
    <path d="M17 3h2a2 2 0 0 1 2 2v2"/>
    <path d="M21 17v2a2 2 0 0 1-2 2h-2"/>
    <path d="M7 21H5a2 2 0 0 1-2-2v-2"/>
    <path d="M7 12h10"/>
  </g>
    <text x="463.2" y="382.16" font-family="Plus Jakarta Sans, Inter, sans-serif" font-weight="700" font-size="34" letter-spacing="-0.5">
      <tspan fill="#ffffff">Rentgen</tspan><tspan fill="#4a9dff">.az</tspan>
    </text>
  </g>

  <g transform="translate(470.8 0)"><g>
    <rect x="0" y="500" width="138.4" height="60" rx="30" fill="rgba(42,212,230,0.12)" stroke="rgba(42,212,230,0.35)" stroke-width="2"/>
    <text x="69.2" y="538.4" text-anchor="middle" font-family="Inter, sans-serif" font-weight="700" font-size="24" letter-spacing="2" fill="#2ad4e6">SORĞU</text>
  </g></g>

  <text x="540" y="697.2" text-anchor="middle" font-family="Plus Jakarta Sans, Inter, sans-serif" font-weight="800" font-size="60" fill="#ffffff" letter-spacing="-1">
    <tspan x="540" dy="0">Dental rentgen nə vaxta</tspan>
<tspan x="540" dy="68.39999999999999">bir dəfə çəkilməlidir?</tspan>
  </text>
  <text x="540" y="816.6" text-anchor="middle" font-family="Inter, sans-serif" font-size="32" fill="rgba(255,255,255,0.68)">
    <tspan x="540" dy="0">İldə bir dəfə? Həkim desə? Dəqiq cavab üçün</tspan>
<tspan x="540" dy="44.16">həkiminizlə məsləhətləşin.</tspan>
  </text>

  <g>
    <rect x="160" y="1540" width="760" height="104" rx="52" fill="rgba(255,255,255,0.08)" stroke="#2ad4e6" stroke-width="2"/>
    <text x="540" y="1604" text-anchor="middle" font-family="Inter, sans-serif" font-weight="700" font-size="26" letter-spacing="0.5" fill="#2ad4e6">IG sorğu stikeri buraya əlavə olunur</text>
  </g>
</svg>