<svg width="1080" height="1080" viewBox="0 0 1080 1080" xmlns="http://www.w3.org/2000/svg">
  <defs>
    <pattern id="gridDark" width="48" height="48" patternUnits="userSpaceOnUse">
    <path d="M 48 0 L 0 0 0 48" fill="none" stroke="rgba(122,170,255,0.08)" stroke-width="1"/>
  </pattern>
    <radialGradient id="glowCyan" cx="50%" cy="50%" r="50%">
    <stop offset="0%" stop-color="#2ad4e6" stop-opacity="0.45"/>
    <stop offset="100%" stop-color="#2ad4e6" stop-opacity="0"/>
  </radialGradient>
    <radialGradient id="glowBrand" cx="50%" cy="50%" r="50%">
    <stop offset="0%" stop-color="#1f7aff" stop-opacity="0.45"/>
    <stop offset="100%" stop-color="#1f7aff" stop-opacity="0"/>
  </radialGradient>
    <linearGradient id="scanBand" x1="0" y1="0" x2="0" y2="1">
      <stop offset="0%" stop-color="#2ad4e6" stop-opacity="0"/>
      <stop offset="50%" stop-color="#2ad4e6" stop-opacity="0.55"/>
      <stop offset="100%" stop-color="#2ad4e6" stop-opacity="0"/>
    </linearGradient>
    <linearGradient id="headlineGradient" x1="0%" y1="0%" x2="100%" y2="30%">
      <stop offset="0%" stop-color="#0a5ff0"/>
      <stop offset="100%" stop-color="#11bdd4"/>
    </linearGradient></defs>
  <rect width="1080" height="1080" fill="#0a1124"/>
  <rect width="1080" height="1080" fill="url(#gridDark)"/>
  <circle cx="540" cy="500" r="440" fill="url(#glowCyan)" opacity="0.55"/>
  <rect x="0" y="330" width="1080" height="170" fill="url(#scanBand)" opacity="0.4"/>

  <g>
    <rect x="320" y="300" width="82.8" height="82.8" rx="23" fill="rgba(255,255,255,0.1)"/>
    <g transform="translate(338.4 318.4) scale(1.9166666666666667)" fill="none" stroke="#2ad4e6" stroke-width="1.9549999999999998" stroke-linecap="round" stroke-linejoin="round">
    <path d="M3 7V5a2 2 0 0 1 2-2h2"/>
    <path d="M17 3h2a2 2 0 0 1 2 2v2"/>
    <path d="M21 17v2a2 2 0 0 1-2 2h-2"/>
    <path d="M7 21H5a2 2 0 0 1-2-2v-2"/>
    <path d="M7 12h10"/>
  </g>
    <text x="425.8" y="357.03999999999996" font-family="Plus Jakarta Sans, Inter, sans-serif" font-weight="700" font-size="46" letter-spacing="-0.5">
      <tspan fill="#ffffff">Rentgen</tspan><tspan fill="#4a9dff">.az</tspan>
    </text>
  </g>

  <text x="540" y="620" text-anchor="middle" font-family="Plus Jakarta Sans, Inter, sans-serif" font-weight="800" font-size="54" fill="#ffffff" letter-spacing="-0.5">
    rentgen.az-da mərkəz tapın
  </text>
  <text x="540" y="672" text-anchor="middle" font-family="Inter, sans-serif" font-size="28" fill="rgba(255,255,255,0.65)">
    <tspan x="540" dy="0">rentgen.az-da bu xidməti göstərən mərkəzləri tapın.</tspan>
  </text>

  <g>
    <rect x="350" y="740" width="380" height="92" rx="46" fill="url(#headlineGradient)"/>
    <text x="540" y="797" text-anchor="middle" font-family="Plus Jakarta Sans, Inter, sans-serif" font-weight="700" font-size="28" fill="#0a1124">Mərkəz tapın →</text>
  </g>

  <text x="80" y="1004" font-family="Inter, sans-serif" font-weight="700" font-size="28" fill="rgba(255,255,255,0.5)"></text>
  <text x="1000" y="1004" text-anchor="end" font-family="Inter, sans-serif" font-size="26" fill="rgba(255,255,255,0.4)">@rentgen.az</text>
</svg>