<svg width="1080" height="1080" viewBox="0 0 1080 1080" xmlns="http://www.w3.org/2000/svg">
  <defs>
    
    <pattern id="gridLight" width="44" height="44" patternUnits="userSpaceOnUse">
    <path d="M 44 0 L 0 0 0 44" fill="none" stroke="rgba(31,122,255,0.07)" stroke-width="1"/>
  </pattern>
    <radialGradient id="glowCyanLight" cx="50%" cy="50%" r="50%">
    <stop offset="0%" stop-color="#2ad4e6" stop-opacity="0.45"/>
    <stop offset="100%" stop-color="#2ad4e6" stop-opacity="0"/>
  </radialGradient>
    <linearGradient id="headlineGradientLight" x1="0%" y1="0%" x2="100%" y2="30%">
      <stop offset="0%" stop-color="#0a5ff0"/>
      <stop offset="100%" stop-color="#11bdd4"/>
    </linearGradient>
    <linearGradient id="cardBorder" x1="0%" y1="0%" x2="100%" y2="100%">
      <stop offset="0%" stop-color="#0a5ff0" stop-opacity="0.25"/>
      <stop offset="100%" stop-color="#11bdd4" stop-opacity="0.25"/>
    </linearGradient>
  </defs>
  <rect width="1080" height="1080" fill="#eef3fb"/>
  <rect width="1080" height="1080" fill="url(#gridLight)"/>
  <circle cx="60" cy="60" r="260" fill="url(#glowCyanLight)" opacity="0.4"/>

  <rect x="100" y="100" width="880" height="880" rx="44" fill="#ffffff" stroke="url(#cardBorder)" stroke-width="2"/>

  <g>
    <rect x="164" y="164" width="130" height="52" rx="26" fill="rgba(17,189,212,0.1)" stroke="rgba(17,189,212,0.3)" stroke-width="2"/>
    <text x="229" y="197.7" text-anchor="middle" font-family="Inter, sans-serif" font-weight="700" font-size="22" letter-spacing="2" fill="#11bdd4">SUAL</text>
  </g>
  <text x="164" y="308" font-family="Inter, sans-serif" font-weight="600" font-size="34" fill="#3a4a6b">
    <tspan x="164" dy="0">[ Sual mətni bura yazılacaq —</tspan>
    <tspan x="164" dy="46">pasiyentin real sorğusu ]</tspan>
  </text>

  <line x1="164" y1="420" x2="916" y2="420" stroke="#eef3fb" stroke-width="3"/>

  <g>
    <rect x="164" y="456" width="150" height="52" rx="26" fill="#0a1124" />
    <text x="239" y="489.7" text-anchor="middle" font-family="Inter, sans-serif" font-weight="700" font-size="22" letter-spacing="2" fill="#2ad4e6">CAVAB</text>
  </g>
  <text x="164" y="600" font-family="Plus Jakarta Sans, Inter, sans-serif" font-weight="700" font-size="42" fill="#0a1124">
    <tspan x="164" dy="0">[ Cavab mətni bura —</tspan>
    <tspan x="164" dy="56">2-3 aydın, sakitləşdirici</tspan>
    <tspan x="164" dy="56">cümlə. Diaqnoz/nəticə</tspan>
    <tspan x="164" dy="56">vədi vermə. ]</tspan>
  </text>

  <g>
    <rect x="164" y="860" width="31.68" height="31.68" rx="8.8" fill="#0a1124"/>
    <g transform="translate(171.04 867.04) scale(0.7333333333333334)" fill="none" stroke="#2ad4e6" stroke-width="0.748" stroke-linecap="round" stroke-linejoin="round">
    <path d="M3 7V5a2 2 0 0 1 2-2h2"/>
    <path d="M17 3h2a2 2 0 0 1 2 2v2"/>
    <path d="M21 17v2a2 2 0 0 1-2 2h-2"/>
    <path d="M7 21H5a2 2 0 0 1-2-2v-2"/>
    <path d="M7 12h10"/>
  </g>
    <text x="204.48000000000002" y="881.8240000000001" font-family="Plus Jakarta Sans, Inter, sans-serif" font-weight="700" font-size="17.6" letter-spacing="-0.5">
      <tspan fill="#0a1124">Rentgen</tspan><tspan fill="#0a5ff0">.az</tspan>
    </text>
  </g>
  <text x="916" y="888" text-anchor="end" font-family="Inter, sans-serif" font-size="22" fill="rgba(10,17,36,0.38)">Pasiyent məlumatlandırması</text>
</svg>